<?xml version="1.0" standalone="no"?>
<!DOCTYPE svg PUBLIC "-//W3C//DTD SVG 20010904//EN"
 "http://www.w3.org/TR/2001/REC-SVG-20010904/DTD/svg10.dtd">
<svg version="1.0" xmlns="http://www.w3.org/2000/svg"
 width="308.000000pt" height="308.000000pt" viewBox="0 0 308.000000 308.000000"
 preserveAspectRatio="xMidYMid meet">
<metadata>
Created by potrace 1.11, written by Peter Selinger 2001-2013
</metadata>
<g transform="translate(0.000000,308.000000) scale(0.100000,-0.100000)"
fill="#000000" stroke="none">
<path d="M269 3057 c-99 -41 -151 -93 -201 -202 l-23 -50 -3 -1224 c-2 -804 1
-1243 8 -1279 5 -31 20 -76 32 -101 32 -66 116 -145 185 -173 l58 -23 1179 -3
c771 -1 1198 1 1235 8 138 25 253 132 285 264 4 16 7 590 7 1276 l0 1247 -22
59 c-31 81 -121 172 -202 202 l-58 22 -1212 0 -1212 0 -56 -23z"/>
</g>
</svg>
